<svg width="68" height="57" viewBox="0 0 68 57" fill="none" xmlns="http://www.w3.org/2000/svg">
<path d="M20.9 27.98C23.54 29.06 25.58 30.8 27.02 33.2C28.58 35.48 29.36 38.24 29.36 41.48C29.36 45.8 27.98 49.34 25.22 52.1C22.46 54.86 19.04 56.24 14.96 56.24C10.64 56.24 7.1 54.86 4.34 52.1C1.58 49.34 0.200001 45.8 0.200001 41.48C0.200001 39.32 0.440001 37.22 0.920001 35.18C1.52 33.14 2.6 30.08 4.16 26L13.7 0.439992H28.1L20.9 27.98ZM59.06 27.98C61.7 29.06 63.74 30.8 65.18 33.2C66.74 35.48 67.52 38.24 67.52 41.48C67.52 45.8 66.14 49.34 63.38 52.1C60.62 54.86 57.2 56.24 53.12 56.24C48.8 56.24 45.26 54.86 42.5 52.1C39.74 49.34 38.36 45.8 38.36 41.48C38.36 39.32 38.6 37.22 39.08 35.18C39.68 33.14 40.76 30.08 42.32 26L51.86 0.439992H66.26L59.06 27.98Z" fill="white"/>
</svg>
