<svg width="50" height="50" viewBox="0 0 50 50" fill="none" xmlns="http://www.w3.org/2000/svg">
<path d="M14.0625 12.5C14.9254 12.5 15.625 11.8004 15.625 10.9375C15.625 10.0746 14.9254 9.375 14.0625 9.375C13.1996 9.375 12.5 10.0746 12.5 10.9375C12.5 11.8004 13.1996 12.5 14.0625 12.5Z" fill="#111111"/>
<path d="M42.1875 34.375V28.125C42.1875 27.2962 41.8583 26.5013 41.2722 25.9153C40.6862 25.3292 39.8913 25 39.0625 25H26.5625V18.75H40.625C41.4538 18.75 42.2487 18.4208 42.8347 17.8347C43.4208 17.2487 43.75 16.4538 43.75 15.625V6.25C43.75 5.4212 43.4208 4.62634 42.8347 4.04029C42.2487 3.45424 41.4538 3.125 40.625 3.125H9.375C8.5462 3.125 7.75134 3.45424 7.16529 4.04029C6.57924 4.62634 6.25 5.4212 6.25 6.25V15.625C6.25 16.4538 6.57924 17.2487 7.16529 17.8347C7.75134 18.4208 8.5462 18.75 9.375 18.75H23.4375V25H10.9375C10.1087 25 9.31384 25.3292 8.72779 25.9153C8.14174 26.5013 7.8125 27.2962 7.8125 28.125V34.375H3.125V46.875H15.625V34.375H10.9375V28.125H23.4375V34.375H18.75V46.875H31.25V34.375H26.5625V28.125H39.0625V34.375H34.375V46.875H46.875V34.375H42.1875ZM12.5 43.75H6.25V37.5H12.5V43.75ZM28.125 37.5V43.75H21.875V37.5H28.125ZM9.375 15.625V6.25H40.625V15.625H9.375ZM43.75 43.75H37.5V37.5H43.75V43.75Z" fill="#111111"/>
</svg>
