<svg width="222" height="89" viewBox="0 0 222 89" fill="none" xmlns="http://www.w3.org/2000/svg">
<path d="M75.1212 22.25L52.6969 44.5L75.1212 66.75L70.6363 75.65L39.2424 44.5L70.6363 13.35L75.1212 22.25Z" fill="black" fill-opacity="0.5"/>
<path d="M69.5151 22.25L47.0909 44.5L69.5151 66.75L65.0303 75.65L33.6364 44.5L65.0303 13.35L69.5151 22.25Z" fill="black" fill-opacity="0.67"/>
<path d="M62.7879 22.25L40.3637 44.5L62.7879 66.75L58.3031 75.65L26.9091 44.5L58.3031 13.35L62.7879 22.25Z" fill="black"/>
<path d="M81.9101 19.6393H86.9021V36.8553H81.9101V19.6393ZM84.4061 17.2393C83.4887 17.2393 82.7421 16.9726 82.1661 16.4393C81.5901 15.906 81.3021 15.2446 81.3021 14.4553C81.3021 13.666 81.5901 13.0046 82.1661 12.4713C82.7421 11.938 83.4887 11.6713 84.4061 11.6713C85.3234 11.6713 86.0701 11.9273 86.6461 12.4393C87.2221 12.9513 87.5101 13.5913 87.5101 14.3593C87.5101 15.1913 87.2221 15.8846 86.6461 16.4393C86.0701 16.9726 85.3234 17.2393 84.4061 17.2393ZM99.5991 19.3833C101.732 19.3833 103.45 20.0233 104.751 21.3033C106.074 22.5833 106.735 24.482 106.735 26.9993V36.8553H101.743V27.7673C101.743 26.402 101.444 25.3886 100.847 24.7273C100.25 24.0446 99.3857 23.7033 98.2551 23.7033C96.9964 23.7033 95.9937 24.098 95.2471 24.8873C94.5004 25.6553 94.1271 26.8073 94.1271 28.3433V36.8553H89.1351V19.6393H93.9031V21.6553C94.5644 20.93 95.3857 20.3753 96.3671 19.9913C97.3484 19.586 98.4257 19.3833 99.5991 19.3833ZM117.368 37.1113C115.533 37.1113 113.88 36.738 112.408 35.9913C110.957 35.2233 109.816 34.1673 108.984 32.8233C108.173 31.4793 107.768 29.954 107.768 28.2473C107.768 26.5406 108.173 25.0153 108.984 23.6713C109.816 22.3273 110.957 21.282 112.408 20.5353C113.88 19.7673 115.533 19.3833 117.368 19.3833C119.181 19.3833 120.76 19.7673 122.104 20.5353C123.469 21.282 124.461 22.3593 125.08 23.7673L121.208 25.8473C120.312 24.2686 119.021 23.4793 117.336 23.4793C116.034 23.4793 114.957 23.906 114.104 24.7593C113.25 25.6126 112.824 26.7753 112.824 28.2473C112.824 29.7193 113.25 30.882 114.104 31.7353C114.957 32.5886 116.034 33.0153 117.336 33.0153C119.042 33.0153 120.333 32.226 121.208 30.6473L125.08 32.7593C124.461 34.1246 123.469 35.1913 122.104 35.9593C120.76 36.7273 119.181 37.1113 117.368 37.1113ZM131.605 37.1113C129.663 37.1113 128.149 36.5993 127.061 35.5753C125.973 34.53 125.429 33.058 125.429 31.1593V13.1113H130.421V30.8713C130.421 31.5966 130.602 32.162 130.965 32.5673C131.349 32.9513 131.882 33.1433 132.565 33.1433C132.821 33.1433 133.077 33.1113 133.333 33.0473C133.61 32.9833 133.823 32.9086 133.973 32.8233L134.197 36.6953C133.365 36.9726 132.501 37.1113 131.605 37.1113ZM151.592 19.6393V36.8553H146.856V34.8073C146.194 35.554 145.405 36.13 144.488 36.5353C143.57 36.9193 142.578 37.1113 141.512 37.1113C139.25 37.1113 137.458 36.4606 136.136 35.1593C134.813 33.858 134.152 31.9273 134.152 29.3673V19.6393H139.144V28.6313C139.144 31.4046 140.306 32.7913 142.632 32.7913C143.826 32.7913 144.786 32.4073 145.512 31.6393C146.237 30.85 146.6 29.6873 146.6 28.1513V19.6393H151.592ZM171.352 13.1113V36.8553H166.584V34.8713C165.347 36.3646 163.555 37.1113 161.208 37.1113C159.587 37.1113 158.115 36.7486 156.792 36.0233C155.491 35.298 154.467 34.2633 153.72 32.9193C152.974 31.5753 152.6 30.018 152.6 28.2473C152.6 26.4766 152.974 24.9193 153.72 23.5753C154.467 22.2313 155.491 21.1966 156.792 20.4713C158.115 19.746 159.587 19.3833 161.208 19.3833C163.406 19.3833 165.123 20.0766 166.36 21.4633V13.1113H171.352ZM162.072 33.0153C163.331 33.0153 164.376 32.5886 165.208 31.7353C166.04 30.8606 166.456 29.698 166.456 28.2473C166.456 26.7966 166.04 25.6446 165.208 24.7913C164.376 23.9166 163.331 23.4793 162.072 23.4793C160.792 23.4793 159.736 23.9166 158.904 24.7913C158.072 25.6446 157.656 26.7966 157.656 28.2473C157.656 29.698 158.072 30.8606 158.904 31.7353C159.736 32.5886 160.792 33.0153 162.072 33.0153ZM182.245 33.1113C183.141 33.1113 183.93 32.9833 184.613 32.7273C185.317 32.45 185.967 32.0233 186.565 31.4473L189.221 34.3273C187.599 36.1833 185.231 37.1113 182.117 37.1113C180.175 37.1113 178.458 36.738 176.965 35.9913C175.471 35.2233 174.319 34.1673 173.509 32.8233C172.698 31.4793 172.293 29.954 172.293 28.2473C172.293 26.562 172.687 25.0473 173.477 23.7033C174.287 22.338 175.386 21.282 176.773 20.5353C178.181 19.7673 179.759 19.3833 181.509 19.3833C183.151 19.3833 184.645 19.7353 185.989 20.4393C187.333 21.122 188.399 22.1246 189.189 23.4473C189.999 24.7486 190.405 26.2953 190.405 28.0873L177.669 30.5513C178.031 31.4046 178.597 32.0446 179.365 32.4713C180.154 32.898 181.114 33.1113 182.245 33.1113ZM181.509 23.1593C180.25 23.1593 179.226 23.5646 178.437 24.3753C177.647 25.186 177.231 26.306 177.189 27.7353L185.573 26.1033C185.338 25.2073 184.858 24.4926 184.133 23.9593C183.407 23.426 182.533 23.1593 181.509 23.1593ZM193.248 37.1113C192.373 37.1113 191.637 36.8126 191.04 36.2153C190.443 35.618 190.144 34.8713 190.144 33.9753C190.144 33.058 190.443 32.322 191.04 31.7673C191.637 31.1913 192.373 30.9033 193.248 30.9033C194.123 30.9033 194.859 31.1913 195.456 31.7673C196.053 32.322 196.352 33.058 196.352 33.9753C196.352 34.8713 196.053 35.618 195.456 36.2153C194.859 36.8126 194.123 37.1113 193.248 37.1113Z" fill="black"/>
<path d="M90.23 69.9008C88.3954 69.9008 86.742 69.5274 85.27 68.7808C83.8194 68.0128 82.678 66.9568 81.846 65.6128C81.0354 64.2688 80.63 62.7434 80.63 61.0368C80.63 59.3301 81.0354 57.8048 81.846 56.4608C82.678 55.1168 83.8194 54.0714 85.27 53.3248C86.742 52.5568 88.3954 52.1728 90.23 52.1728C92.0434 52.1728 93.622 52.5568 94.966 53.3248C96.3314 54.0714 97.3234 55.1488 97.942 56.5568L94.07 58.6368C93.174 57.0581 91.8834 56.2688 90.198 56.2688C88.8967 56.2688 87.8194 56.6954 86.966 57.5488C86.1127 58.4021 85.686 59.5648 85.686 61.0368C85.686 62.5088 86.1127 63.6714 86.966 64.5248C87.8194 65.3781 88.8967 65.8048 90.198 65.8048C91.9047 65.8048 93.1954 65.0154 94.07 63.4368L97.942 65.5488C97.3234 66.9141 96.3314 67.9808 94.966 68.7488C93.622 69.5168 92.0434 69.9008 90.23 69.9008ZM106.39 69.9008C104.576 69.9008 102.944 69.5274 101.494 68.7808C100.064 68.0128 98.9442 66.9568 98.1335 65.6128C97.3229 64.2688 96.9175 62.7434 96.9175 61.0368C96.9175 59.3301 97.3229 57.8048 98.1335 56.4608C98.9442 55.1168 100.064 54.0714 101.494 53.3248C102.944 52.5568 104.576 52.1728 106.39 52.1728C108.203 52.1728 109.824 52.5568 111.254 53.3248C112.683 54.0714 113.803 55.1168 114.614 56.4608C115.424 57.8048 115.83 59.3301 115.83 61.0368C115.83 62.7434 115.424 64.2688 114.614 65.6128C113.803 66.9568 112.683 68.0128 111.254 68.7808C109.824 69.5274 108.203 69.9008 106.39 69.9008ZM106.39 65.8048C107.67 65.8048 108.715 65.3781 109.526 64.5248C110.358 63.6501 110.774 62.4874 110.774 61.0368C110.774 59.5861 110.358 58.4341 109.526 57.5808C108.715 56.7061 107.67 56.2688 106.39 56.2688C105.11 56.2688 104.054 56.7061 103.222 57.5808C102.39 58.4341 101.974 59.5861 101.974 61.0368C101.974 62.4874 102.39 63.6501 103.222 64.5248C104.054 65.3781 105.11 65.8048 106.39 65.8048ZM134.302 45.9008V69.6448H129.534V67.6608C128.297 69.1541 126.505 69.9008 124.158 69.9008C122.537 69.9008 121.065 69.5381 119.742 68.8128C118.441 68.0874 117.417 67.0528 116.67 65.7088C115.924 64.3648 115.55 62.8074 115.55 61.0368C115.55 59.2661 115.924 57.7088 116.67 56.3648C117.417 55.0208 118.441 53.9861 119.742 53.2608C121.065 52.5354 122.537 52.1728 124.158 52.1728C126.356 52.1728 128.073 52.8661 129.31 54.2528V45.9008H134.302ZM125.022 65.8048C126.281 65.8048 127.326 65.3781 128.158 64.5248C128.99 63.6501 129.406 62.4874 129.406 61.0368C129.406 59.5861 128.99 58.4341 128.158 57.5808C127.326 56.7061 126.281 56.2688 125.022 56.2688C123.742 56.2688 122.686 56.7061 121.854 57.5808C121.022 58.4341 120.606 59.5861 120.606 61.0368C120.606 62.4874 121.022 63.6501 121.854 64.5248C122.686 65.3781 123.742 65.8048 125.022 65.8048ZM145.195 65.9008C146.091 65.9008 146.88 65.7728 147.563 65.5168C148.267 65.2394 148.917 64.8128 149.515 64.2368L152.171 67.1168C150.549 68.9728 148.181 69.9008 145.067 69.9008C143.125 69.9008 141.408 69.5274 139.915 68.7808C138.421 68.0128 137.269 66.9568 136.459 65.6128C135.648 64.2688 135.243 62.7434 135.243 61.0368C135.243 59.3514 135.637 57.8368 136.427 56.4928C137.237 55.1274 138.336 54.0714 139.723 53.3248C141.131 52.5568 142.709 52.1728 144.459 52.1728C146.101 52.1728 147.595 52.5248 148.939 53.2288C150.283 53.9114 151.349 54.9141 152.139 56.2368C152.949 57.5381 153.355 59.0848 153.355 60.8768L140.619 63.3408C140.981 64.1941 141.547 64.8341 142.315 65.2608C143.104 65.6874 144.064 65.9008 145.195 65.9008ZM144.459 55.9488C143.2 55.9488 142.176 56.3541 141.387 57.1648C140.597 57.9754 140.181 59.0954 140.139 60.5248L148.523 58.8928C148.288 57.9968 147.808 57.2821 147.083 56.7488C146.357 56.2154 145.483 55.9488 144.459 55.9488Z" fill="black"/>
</svg>
