<svg width="50" height="50" viewBox="0 0 50 50" fill="none" xmlns="http://www.w3.org/2000/svg">
<path d="M13.3333 31.7778V14.7222H33.8889L36.0833 12.5H11.1111V31.7778H13.3333Z" fill="#111111"/>
<path d="M8.33344 9.72222H41.6668V31.9444H44.4445V9.02778C44.4445 8.47524 44.2251 7.94534 43.8344 7.55464C43.4437 7.16394 42.9137 6.94444 42.3612 6.94444H7.639C7.08646 6.94444 6.55656 7.16394 6.16586 7.55464C5.77516 7.94534 5.55566 8.47524 5.55566 9.02778V31.9444H8.33344V9.72222Z" fill="#111111"/>
<path d="M1.38892 34.7222V39.4444C1.38892 40.4022 1.76937 41.3207 2.44659 41.9979C3.1238 42.6751 4.0423 43.0556 5.00003 43.0556H44.9167C45.8744 43.0556 46.7929 42.6751 47.4701 41.9979C48.1474 41.3207 48.5278 40.4022 48.5278 39.4444V34.7222H1.38892ZM45.8334 39.4444C45.8334 39.6655 45.7456 39.8774 45.5893 40.0337C45.433 40.19 45.221 40.2778 45 40.2778H4.94447C4.72346 40.2778 4.5115 40.19 4.35522 40.0337C4.19894 39.8774 4.11114 39.6655 4.11114 39.4444V36.8472H17.9306C18.1042 37.2569 18.3941 37.6068 18.7643 37.8536C19.1345 38.1004 19.569 38.2334 20.0139 38.2361H29.9167C30.3617 38.2334 30.7961 38.1004 31.1663 37.8536C31.5366 37.6068 31.8264 37.2569 32 36.8472H45.8334V39.4444Z" fill="#111111"/>
</svg>
